<svg width="716" height="203" viewBox="0 0 716 203" fill="none" xmlns="http://www.w3.org/2000/svg">
<path d="M370.033 0.384077C369.674 0.588908 367.524 4.68553 365.219 9.44784C359.228 21.9937 354.773 31.2111 349.652 41.7087C347.194 46.7783 343.968 53.4865 342.483 56.6102L339.82 62.243L335.007 62.8575C332.344 63.216 327.786 63.8305 324.816 64.2401C321.846 64.6498 309.198 66.3396 296.652 68.0807C284.106 69.7705 273.353 71.2556 272.738 71.4092C271.151 71.7677 269 76.53 269 79.7561V82.2652L285.54 98.0884C294.604 106.794 304.897 116.677 308.43 120.108C311.963 123.539 315.548 126.918 316.418 127.686L318.006 129.018L317.033 134.241C316.521 137.16 315.753 141.359 315.343 143.612C314.933 145.865 313.807 152.317 312.783 157.95C311.758 163.583 310.734 169.318 310.478 170.752C310.222 172.135 309.044 178.587 307.918 185.09L305.818 196.868L308.328 199.224C309.71 200.606 311.707 201.886 312.834 202.245L314.882 202.859L333.061 193.13C343.046 187.804 354.773 181.506 359.126 179.201C363.478 176.846 368.906 173.927 371.108 172.749C374.693 170.855 375.307 170.65 376.229 171.264C376.844 171.623 390.311 178.894 406.237 187.395L435.118 202.859L437.166 202.194C438.242 201.835 440.341 200.453 441.724 199.172L444.284 196.817L443.158 190.672C442.543 187.343 441.724 182.632 441.263 180.226C440.853 177.819 438.907 167.168 437.013 156.568L433.53 137.262L431.789 135.829C418.424 124.819 409.309 109.661 405.725 92.6604C403.625 82.4701 403.83 69.4633 406.288 59.8362L407.261 55.8933L401.833 44.73C398.812 38.5338 395.278 31.2111 393.947 28.3947C386.01 11.8034 380.479 0.691323 379.967 0.384077C379.148 -0.128 370.852 -0.128 370.033 0.384077Z" fill="white"/>
<path d="M414.481 65.8276C413.508 70.5899 413.201 79.6537 413.867 84.8257C415.147 95.3232 418.629 104.899 424.313 113.604C427.898 119.032 434.145 126.099 435.22 125.843C435.579 125.741 438.344 123.283 441.416 120.313C444.438 117.343 454.628 107.613 463.999 98.6005L481 82.3165V79.5513C481 76.1203 479.054 71.8189 477.262 71.4092C476.647 71.2556 468.403 70.129 458.981 68.8488C426.72 64.445 420.524 63.6256 417.451 63.1648L415.096 62.8575L414.481 65.8276Z" fill="white"/>
<path d="M229.117 76.1822L222.298 76.5122L218.888 82.5619C217.018 85.9717 215.148 88.3915 214.708 88.0616C214.378 87.6216 212.728 84.9817 211.188 82.1219L208.438 76.9522L201.619 76.6222C197.769 76.4022 194.689 76.6222 194.689 77.1722C194.689 77.6121 197.879 83.2218 201.839 89.7115C208.768 101.041 208.988 101.701 208.988 108.74V116H215.038H221.088V108.85C221.088 102.031 221.308 101.371 228.897 89.0515C233.187 82.0119 236.597 76.1822 236.377 76.0722C236.157 75.9622 232.857 75.9622 229.117 76.1822Z" fill="white"/>
<path d="M0 96.2011V116H6.59963H13.1993V109.4V102.801H22.5487H31.8982V97.301V91.8013H22.5487C13.9692 91.8013 13.1993 91.5813 13.1993 89.6015C13.1993 87.5116 13.9692 87.4016 23.0987 87.4016H32.9982V81.9019V76.4022H16.4991H0V96.2011Z" fill="white"/>
<path d="M37.3979 96.2011V116H43.4476H49.4973V110.5C49.4973 103.131 52.1371 103.131 56.9769 110.5L60.4967 116H67.6463C74.2459 116 76.4458 115.01 73.6959 113.25C73.146 112.92 71.0561 110.39 69.1862 107.64L65.7764 102.581L68.0862 101.041C75.7858 95.5411 75.1258 83.6618 66.7663 78.6021C63.7965 76.7322 61.1566 76.4022 50.3772 76.4022H37.3979V96.2011ZM60.2767 90.3714C60.7166 93.1213 57.1968 95.1012 52.1371 95.1012C49.8273 95.1012 49.4973 94.5512 49.4973 91.1414V87.2916L54.777 87.6216C59.1767 87.9516 59.9467 88.2815 60.2767 90.3714Z" fill="white"/>
<path d="M76.9957 96.2011V116H94.0448H111.094V111.05V106.101H100.644C90.195 106.101 90.195 106.101 90.195 103.351C90.195 100.601 90.305 100.601 99.5445 100.601H108.894V95.6511V90.7014H99.5445C90.9649 90.7014 90.195 90.4814 90.195 88.5015C90.195 86.4116 90.9649 86.3017 100.094 86.3017H109.994V81.3519V76.4022H93.4948H76.9957V96.2011Z" fill="white"/>
<path d="M115.494 96.2011V116H127.043C142.662 116 148.272 113.25 152.341 103.571C155.421 96.0911 153.771 87.4016 148.272 82.2319C143.542 77.8321 138.262 76.4022 126.493 76.4022H115.494V96.2011ZM138.262 89.8215C140.022 91.4714 140.792 93.4513 140.792 96.3111C140.792 101.811 137.492 105.001 131.773 105.001H127.593V96.2011V87.4016H131.663C134.302 87.4016 136.612 88.2815 138.262 89.8215Z" fill="white"/>
<path d="M158.391 96.0911V116H169.94C179.18 116 182.37 115.56 185.67 113.91C193.369 109.95 196.889 104.231 196.889 95.8711C196.889 89.9315 194.139 84.5418 188.859 80.362C184.68 77.0622 184.24 76.9522 171.48 76.6222L158.391 76.1822V96.0911ZM180.61 88.9415C183.69 91.2514 184.9 95.6511 183.58 99.5009C182.15 103.571 179.62 105.001 174.45 105.001H170.49V96.2011V87.4016H174.67C176.87 87.4016 179.62 88.0616 180.61 88.9415Z" fill="white"/>
<path d="M645.648 73.5217C637.339 75.7451 632.892 84.6386 636.286 91.8939C638.392 96.3407 640.499 97.6279 650.211 100.553C658.871 103.128 660.158 105.468 653.02 105.468C650.094 105.468 646.467 104.532 644.126 103.128L640.382 100.787L636.871 104.649C634.999 106.638 633.36 108.979 633.36 109.681C633.36 110.383 635.35 112.021 637.924 113.426C641.669 115.532 644.36 116 652.669 116C662.733 116 662.967 115.883 666.828 112.021C669.988 108.862 670.807 107.107 670.807 103.362C670.807 96.5747 667.179 92.9471 657.35 89.6705C652.903 88.2663 649.041 86.511 648.807 85.6918C648.105 83.7025 655.594 84.0535 659.69 86.2769C663.084 88.0322 663.201 88.0322 666.477 84.2876C668.232 82.1812 669.637 79.8408 669.637 79.1387C669.637 75.6281 652.552 71.5324 645.648 73.5217Z" fill="white"/>
<path d="M514 94.9364V116H521.021H528.042V108.979V101.958H537.404H546.766V96.1066V90.2556H537.404C528.862 90.2556 528.042 90.0216 528.042 87.9152C528.042 85.6918 528.862 85.5748 538.574 85.5748H549.106V79.7238V73.8728H531.553H514V94.9364Z" fill="white"/>
<path d="M553.787 94.9364V116H560.223H566.659V110.149C566.659 102.192 569.468 102.192 574.265 110.149L577.659 116H585.031C589.127 116 592.403 115.649 592.403 115.181C592.403 114.83 590.414 111.553 588.074 108.16L583.744 101.841L586.787 99.2662C593.925 93.2981 593.223 81.7131 585.499 76.5643C581.872 74.1068 580.116 73.8728 567.712 73.8728H553.787V94.9364ZM578.127 88.7344C578.595 91.6599 574.85 93.7662 569.468 93.7662C567.01 93.7662 566.659 93.1811 566.659 89.5535V85.4578L572.276 85.8088C576.957 86.1599 577.776 86.511 578.127 88.7344Z" fill="white"/>
<path d="M595.914 94.9364V116H613.467H631.02V110.734V105.468H620.02H609.137L609.722 102.543C610.191 99.7342 610.542 99.6172 620.137 99.6172H629.967L629.616 94.5854L629.265 89.6705L619.669 89.3195C610.893 88.9684 609.956 88.7344 609.956 86.745C609.956 84.6386 610.776 84.4046 620.488 84.4046H631.02V79.1387V73.8728H613.467H595.914V94.9364Z" fill="white"/>
<path d="M675.488 94.9364V116H681.924H688.36V108.394V100.787H694.796H701.232V108.394V116H708.253H715.275V94.9364V73.8728H708.253H701.232V81.4791V89.0854H694.796H688.36V81.4791V73.8728H681.924H675.488V94.9364Z" fill="white"/>
</svg>
