<svg xmlns="http://www.w3.org/2000/svg" width="135.609mm" height="136.581mm" viewBox="0 0 2861.31 2881.81" style="shape-rendering:geometricPrecision; text-rendering:geometricPrecision; image-rendering:optimizeQuality; fill-rule:evenodd; clip-rule:evenodd">
 <g id="Слой_x0020_1">
  <path class="fil0" d="M701.05 4.82l0 0c32.41,0 58.92,26.51 58.92,58.92l0 610.41 0 70.24c0,143.41 -92.13,266.32 -220.12,312.52l0 1665.03c0,87.93 -71.94,159.87 -159.87,159.87l-0 0c-87.93,0 -159.87,-71.94 -159.87,-159.87l0 -1665.03c-127.99,-46.2 -220.12,-169.11 -220.12,-312.52l0 -70.24 0 -610.41c0,-32.41 26.51,-58.92 58.92,-58.92l0 0c32.41,0 58.92,26.51 58.92,58.92l0 610.41 96.2 0 0 -610.41c0,-32.41 26.51,-58.92 58.92,-58.92 32.41,0 58.92,26.51 58.92,58.92l0 610.41 96.2 0 0 -610.41c0,-32.41 26.51,-58.92 58.92,-58.92 32.41,0 58.92,26.51 58.92,58.92l0 610.41 96.2 0 0 -610.41c0,-32.41 26.51,-58.92 58.92,-58.92zm-590.81 776.49c13.38,79.36 69.17,146.99 146.25,174.81l70.77 25.55 0 1740.27c0,28.78 23.93,52.71 52.71,52.71 28.78,0 52.71,-23.93 52.71,-52.71l0 -1740.27 70.77 -25.55c77.08,-27.82 132.87,-95.45 146.26,-174.81l-162.72 0 -214.04 0 -162.72 0zm814.91 1479.83c152.69,94.31 328.73,144.3 508.2,144.3 295.19,0 574.23,-134.83 757.66,-366.1 17.9,-22.56 50.9,-26.37 73.46,-8.47 22.56,17.9 26.37,50.9 8.47,73.46 -203.27,256.28 -512.49,405.69 -839.6,405.69 -198.87,0 -393.95,-55.39 -563.16,-159.9 -24.5,-15.13 -32.14,-47.46 -17.01,-71.97 15.13,-24.5 47.46,-32.14 71.97,-17.01zm-206.25 -47.61c31.43,0 56.91,-25.48 56.91,-56.91 0,-31.43 -25.48,-56.91 -56.91,-56.91 -31.43,0 -56.91,25.48 -56.91,56.91 0,31.43 25.48,56.91 56.91,56.91zm1421.77 -1434.74c-182.92,-196.16 -439.11,-307.55 -707.32,-307.55 -152.57,0 -303.14,36.15 -439.07,105.41 -25.62,13.06 -57.17,2.8 -70.23,-22.82 -13.06,-25.62 -2.8,-57.17 22.82,-70.23 150.62,-76.74 317.44,-116.8 486.48,-116.8 297.17,0 581.03,123.42 783.69,340.76 19.61,21.03 18.46,54.18 -2.58,73.8 -21.03,19.61 -54.18,18.46 -73.8,-2.58zm-707.32 1339.92c-375.74,0 -680.33,-304.6 -680.33,-680.33 0,-375.74 304.6,-680.33 680.33,-680.33 375.73,0 680.33,304.6 680.33,680.33 0,375.73 -304.6,680.33 -680.33,680.33zm-0 122.13c443.19,0 802.47,-359.28 802.47,-802.47 0,-443.19 -359.28,-802.47 -802.47,-802.47 -443.19,0 -802.47,359.28 -802.47,802.47 0,443.19 359.28,802.47 802.47,802.47zm-153.41 -1182.18c-154.79,62.54 -256.12,212.77 -256.12,379.71 0,28.76 -23.46,52.22 -52.22,52.22 -28.76,0 -52.22,-23.46 -52.22,-52.22 0,-209.51 127.18,-398.07 321.44,-476.55 26.67,-10.77 57.21,2.19 67.98,28.86 10.77,26.67 -2.19,57.21 -28.86,67.98zm153.41 -137.52c31.43,0 56.91,25.48 56.91,56.91 0,31.43 -25.48,56.91 -56.91,56.91 -31.43,0 -56.91,-25.48 -56.91,-56.91 0,-31.43 25.48,-56.91 56.91,-56.91z"/>
  <path class="fil0" d="M2528.39 1853.76c-115.72,-47.19 -197.83,-161.09 -197.83,-293.26 0,-248.3 0,-496.61 0,-744.91 0,-416.82 365.7,-815.59 478.16,-815.59l0 0c28.93,0 52.6,23.67 52.6,52.6 0,608.13 0,1216.27 0,1824.4l0 822.36c0,91.56 -74.91,166.46 -166.46,166.46 -91.56,0 -166.46,-74.91 -166.46,-166.46l0 -845.6zm110.04 -92.62l0 938.22c0,30.82 25.61,56.43 56.43,56.43 30.82,0 56.49,-25.61 56.43,-56.43l-5.62 -2527.9c-2.48,2.33 -4.69,4.45 -6.57,6.28 -50.34,49.01 -95.62,106.85 -134.06,165.55 -89.75,137.03 -158.82,306.53 -158.82,472.3l0 744.91c0,107.34 85.92,196.06 192.22,200.64z"/>
 </g>
</svg>
