<svg xmlns="http://www.w3.org/2000/svg" width="215.228mm" height="215.228mm" viewBox="0 0 5792.06 5792.06" style="shape-rendering:geometricPrecision; text-rendering:geometricPrecision; image-rendering:optimizeQuality; fill-rule:evenodd; clip-rule:evenodd">
 <g id="Слой_x0020_1">
  <path class="fil0" d="M2896.03 3474.27c39.64,0 78.39,1.17 116.57,3.04 455.98,-57.32 808.64,-446.39 808.64,-917.92 0,-511.02 -414.19,-925.21 -925.21,-925.21 -511.02,0 -925.21,414.19 -925.21,925.21 0,471.54 352.66,860.62 808.65,917.93 38.18,-1.87 76.93,-3.04 116.56,-3.04zm0 -3339.7c1525.11,0 2761.46,1236.35 2761.46,2761.46 0,757.45 -305.06,1443.58 -798.9,1942.49 -115.66,-287.55 -531.28,-1122.23 -1518.76,-1321.14 361.26,-167.64 611.83,-533.53 611.83,-958 0,-583.01 -472.62,-1055.63 -1055.63,-1055.63 -583.01,0 -1055.63,472.62 -1055.63,1055.63 0,424.47 250.57,790.37 611.84,958 -987.43,198.92 -1403.1,1033.59 -1518.76,1321.14 -493.84,-498.91 -798.9,-1185.04 -798.9,-1942.5 0,-1525.11 1236.35,-2761.46 2761.46,-2761.46zm127.32 5654.54c-14.03,0.64 -28.08,1.17 -42.16,1.6 -5.32,0.16 -10.64,0.33 -15.97,0.47 -23,0.58 -46.06,0.87 -69.2,0.87 -23.14,0 -46.2,-0.31 -69.2,-0.87 -5.33,-0.12 -10.64,-0.31 -15.97,-0.47 -14.08,-0.43 -28.13,-0.96 -42.16,-1.6 -1540.34,-66.66 -2768.71,-1336.33 -2768.71,-2893.09 0,-1599.43 1296.59,-2896.03 2896.03,-2896.03 1599.43,0 2896.03,1296.59 2896.03,2896.03 0,1556.75 -1228.37,2826.42 -2768.71,2893.09zm1708.99 -888.72c-19.94,-50.24 -43.5,-100.83 -65.66,-146.01 -82.51,-168.31 -186.42,-328.71 -307.74,-471.61 -378.43,-445.77 -877.8,-667.77 -1462.92,-667.77 -585.18,0 -1084.68,221.91 -1463.12,667.8 -121.28,142.9 -225.15,303.3 -307.61,471.6 -22.13,45.17 -45.68,95.74 -65.59,145.97 490.4,481.89 1145.78,750.94 1836.33,750.94 690.54,0 1345.91,-269.04 1836.31,-750.92z"/>
 </g>
</svg>
